<svg width="1200" height="630" viewBox="0 0 1200 630" xmlns="http://www.w3.org/2000/svg">
  <defs>
    <linearGradient id="bg" x1="0" y1="0" x2="1" y2="1">
      <stop offset="0%" stop-color="#1B4332"/>
      <stop offset="100%" stop-color="#2D6A4F"/>
    </linearGradient>
  </defs>

  <rect width="1200" height="630" fill="url(#bg)"/>

  <!-- 背景裝飾圓 -->
  <circle cx="1100" cy="580" r="300" fill="#52B788" opacity="0.07"/>
  <circle cx="1150" cy="50"  r="200" fill="#52B788" opacity="0.05"/>

  <!-- 左上葉子群 -->
  <g transform="translate(115,125) rotate(-40)">
    <path d="M0,-80 C40,-70 70,-30 70,10 C70,50 40,80 0,88 C-40,80 -70,50 -70,10 C-70,-30 -40,-70 0,-80 Z" fill="#52B788" opacity="0.35"/>
    <line x1="0" y1="88" x2="0" y2="112" stroke="#52B788" stroke-width="4" stroke-linecap="round" opacity="0.4"/>
  </g>
  <g transform="translate(210,78) rotate(-8)">
    <path d="M0,-58 C28,-50 52,-20 52,10 C52,38 28,60 0,66 C-28,60 -52,38 -52,10 C-52,-20 -28,-50 0,-58 Z" fill="#52B788" opacity="0.2"/>
  </g>
  <g transform="translate(75,210) rotate(18)">
    <path d="M0,-38 C18,-32 34,-12 34,6 C34,24 18,38 0,42 C-18,38 -34,24 -34,6 C-34,-12 -18,-32 0,-38 Z" fill="#F9F7F2" opacity="0.08"/>
  </g>

  <!-- 右下葉子群 -->
  <g transform="translate(1085,500) rotate(30)">
    <path d="M0,-68 C34,-58 60,-22 60,12 C60,46 34,70 0,76 C-34,70 -60,46 -60,12 C-60,-22 -34,-58 0,-68 Z" fill="#52B788" opacity="0.28"/>
  </g>
  <g transform="translate(1135,428) rotate(-18)">
    <path d="M0,-44 C22,-36 40,-14 40,8 C40,30 22,46 0,50 C-22,46 -40,30 -40,8 C-40,-14 -22,-36 0,-44 Z" fill="#52B788" opacity="0.18"/>
  </g>

  <!-- 中央葉子 icon -->
  <g transform="translate(600,195)">
    <path d="M0,-58 C32,-50 58,-18 58,14 C58,44 32,68 0,74 C-32,68 -58,44 -58,14 C-58,-18 -32,-50 0,-58 Z" fill="#52B788"/>
    <line x1="0" y1="74" x2="0" y2="98" stroke="#52B788" stroke-width="5" stroke-linecap="round"/>
    <line x1="0" y1="30" x2="28"  y2="4"  stroke="#1B4332" stroke-width="2" stroke-linecap="round" opacity="0.45"/>
    <line x1="0" y1="14" x2="-24" y2="-4" stroke="#1B4332" stroke-width="2" stroke-linecap="round" opacity="0.35"/>
    <line x1="0" y1="48" x2="20"  y2="36" stroke="#1B4332" stroke-width="1.5" stroke-linecap="round" opacity="0.35"/>
  </g>

  <!-- App 名稱 -->
  <text x="600" y="368"
    font-family="'PingFang TC','Heiti TC','Microsoft JhengHei','Noto Sans TC',sans-serif"
    font-size="88" font-weight="700" fill="#F9F7F2"
    text-anchor="middle" letter-spacing="14">減脂助理</text>

  <!-- 副標語 -->
  <text x="600" y="426"
    font-family="'PingFang TC','Heiti TC','Microsoft JhengHei','Noto Sans TC',sans-serif"
    font-size="26" font-weight="400" fill="#52B788"
    text-anchor="middle" letter-spacing="3">記錄體重・追蹤體脂・健康管理</text>

  <!-- 功能 pills -->
  <rect x="238" y="488" width="184" height="42" rx="21" fill="#F9F7F2" opacity="0.1"/>
  <text x="330" y="515"
    font-family="'PingFang TC','Heiti TC','Microsoft JhengHei',sans-serif"
    font-size="17" fill="#F9F7F2" text-anchor="middle" opacity="0.85">體重 / 體脂追蹤</text>

  <rect x="508" y="488" width="184" height="42" rx="21" fill="#F9F7F2" opacity="0.1"/>
  <text x="600" y="515"
    font-family="'PingFang TC','Heiti TC','Microsoft JhengHei',sans-serif"
    font-size="17" fill="#F9F7F2" text-anchor="middle" opacity="0.85">圖表數據分析</text>

  <rect x="778" y="488" width="184" height="42" rx="21" fill="#F9F7F2" opacity="0.1"/>
  <text x="870" y="515"
    font-family="'PingFang TC','Heiti TC','Microsoft JhengHei',sans-serif"
    font-size="17" fill="#F9F7F2" text-anchor="middle" opacity="0.85">個人體型評估</text>
</svg>
